<svg id="Layer_1" data-name="Layer 1" xmlns="http://www.w3.org/2000/svg" width="47.07" height="48.63" viewBox="0 0 47.07 48.63"><defs><style>.cls-1{fill:#dae11e;}.cls-2{fill:#fff;}</style></defs><title>externalicon2</title><path class="cls-1" d="M37.58,48.63H0V11H37.58ZM2.59,46H35V13.64H2.59Z" transform="translate(0)"/><rect class="cls-1" x="17.37" width="29.71" height="29.71"/><path class="cls-2" d="M40.46,17.84a1,1,0,0,1-1-1V8H30A1,1,0,1,1,30,6H41.43V16.87A1,1,0,0,1,40.46,17.84Z" transform="translate(0)"/><path class="cls-2" d="M25.39,22.27a1,1,0,0,1-.67-1.67L39.79,6.29A1,1,0,0,1,41.13,7.7L26.06,22A1,1,0,0,1,25.39,22.27Z" transform="translate(0)"/></svg>