<svg id="Layer_1" data-name="Layer 1" xmlns="http://www.w3.org/2000/svg" xmlns:xlink="http://www.w3.org/1999/xlink" width="89.54in" height="82.7in" viewBox="0 0 6446.58 5954.38"><defs><style>.cls-1{fill:none;}.cls-2{fill:#eaeaea;}.cls-3{fill:#dae11e;}.cls-4{fill:url(#squiggles_colore);}</style><pattern id="squiggles_colore" data-name="squiggles colore" x="26.62" y="14.13" width="340.24" height="286.8" patternUnits="userSpaceOnUse" viewBox="0 0 340.24 286.8"><rect class="cls-1" width="340.24" height="286.8"/><path class="cls-2" d="M111.35,130.6c1.27.77,2.41,1.41,3.49,2.14a1.05,1.05,0,0,1,.33.94c-.46,1.27-.69,2.76-2.39,3.08a1.27,1.27,0,0,0-.44.17c-4.66,3-9.33,6-14,9a11.62,11.62,0,0,0-2.05,1.82,1.1,1.1,0,0,0-.15,1,19.52,19.52,0,0,0,2.36,2.94c2.67,2.54,6,4.13,9,6.22a48.62,48.62,0,0,1,8.55,7.14,10.56,10.56,0,0,1,2,11.31c-1.74,4.48-5,7.82-8.48,11-2.29,2-4.38,4.29-6.57,6.44a2,2,0,0,0-.22,2.52c1,2.16,3,3.52,4.61,5.13,3.75,3.64,8.58,5.64,12.76,8.61a15.29,15.29,0,0,1,4.44,4.25c2.26,3.83,1.95,6.54-2.42,10.41a59.16,59.16,0,0,1-5,3.65c-3.08,2.2-6.19,4.37-9.24,6.63a29.33,29.33,0,0,0-2.35,2.37,1.73,1.73,0,0,0,0,2.73,17.29,17.29,0,0,0,3.62,3.05c3.33,1.88,6.82,3.47,10.16,5.31a25.73,25.73,0,0,1,5.11,3.47,5.85,5.85,0,0,1,.43,7.72,46.54,46.54,0,0,1-10.27,9.72c-1.06.76-1.92,1.8-2.91,2.66s-1.94,1.59-2.92,2.37c-1.28,1-3,.06-3.65-2a2.44,2.44,0,0,1,.54-2.91c1.07-.93,2-2,3.06-3,3.47-3.24,7-6.38,10.4-9.72,1.54-1.53,1.25-2.31-.83-3.29s-4.51-1.93-6.71-3a37.43,37.43,0,0,1-8.53-5.12c-2.33-2.06-4.17-4.41-4.23-7.76a6,6,0,0,1,2-4.7c2.5-2.25,5.16-4.35,7.85-6.37,3.18-2.38,6.61-4.46,9.69-7,2.29-1.87,2.15-2.57-.27-4.23s-5.11-3.21-7.63-4.86c-1.67-1.09-3.25-2.31-4.91-3.42a26.36,26.36,0,0,1-6-5.06,12,12,0,0,1-3.1-8.43,5.41,5.41,0,0,1,1-2.8,60,60,0,0,1,8.24-8.47,47.41,47.41,0,0,0,5.7-6.58,11.67,11.67,0,0,0,1.49-3.37c.49-1.42-.29-2.55-1.09-3.62a11.28,11.28,0,0,0-1.39-1.61c-.82-.75-1.7-1.45-2.59-2.13-1.12-.85-2.27-1.66-3.4-2.49-1.84-1.36-3.74-2.65-5.51-4.1-2.14-1.76-4.2-3.61-6.21-5.51a14.58,14.58,0,0,1-2.71-3.55,2.12,2.12,0,0,1-.27-1.22,8.74,8.74,0,0,1,2.87-5.24c2.68-2.64,6-4.31,8.93-6.48a82.39,82.39,0,0,1,7.22-4.26C109.64,131.68,110.45,131.15,111.35,130.6Z"/><path class="cls-3" d="M67.64,22.6c0-.56.06-.92-.08-1.1A1.64,1.64,0,0,1,68,18.83c1.89-1.42,4-1.26,6.13-1a19.6,19.6,0,0,1,6.06,1.49,8.87,8.87,0,0,1,5.16,6c.43,2-.36,3.74-1.23,5.45a35.08,35.08,0,0,0-3.52,8.67c-.48,2.33.48,3.69,2.89,3.73,3.45,0,6.9.15,10.35,0,2.56-.1,5.1-.63,7.66-.83a12.59,12.59,0,0,1,6.5,1.16,7.45,7.45,0,0,1,3.57,4.27,2.74,2.74,0,0,1-.22,1.72,19.38,19.38,0,0,1-4.1,6.5c-1.72,1.87-2.93,4.21-4.57,6.17-1.47,1.78-1.85,3.87-2.36,6a.92.92,0,0,0,.71,1.27,32.76,32.76,0,0,0,3.4.89,24.46,24.46,0,0,0,4.82.58c3.58-.1,7.16-.4,10.74-.65,2.76-.19,5.52-.44,8.27-.65a18.54,18.54,0,0,1,4.24-.21,17.39,17.39,0,0,1,5.66,1.67A7.75,7.75,0,0,1,142,76.82a6.52,6.52,0,0,1-1.19,3.79c-1.66,2.74-3.6,5.32-5.32,8-1.94,3.07-4.1,6.06-5,9.66a10.79,10.79,0,0,0-.43,3.42c.14,1.67,1.63,2.24,3,2.78a25.72,25.72,0,0,0,11.25,1.65c5.29-.3,10.49-1.1,15.27-3.59.73-.38,1.26-1.12,2-1.51,1.25-.68,2.59-1.22,4.05-.57,2.25,1,2.39,3,.56,4.65a17.72,17.72,0,0,1-7.51,4.16c-2,.49-4,.7-6.06,1-1.36.22-2.71.53-4.08.62-4.65.32-9.31.46-13.86-.82a30.84,30.84,0,0,1-5.79-2.13c-5-2.6-5.62-6.72-4.26-11.66,1.41-5.12,4.74-9.15,7.72-13.38a35.25,35.25,0,0,0,3-4.72c1.38-2.83.42-3.52-2.41-3.52-3.66,0-7.31.62-11,.86-3.13.2-6.28.35-9.42.33a64.88,64.88,0,0,1-8.76-.53,25.51,25.51,0,0,1-6.13-1.85c-2.64-1.11-4.32-5-3-8.56a26.71,26.71,0,0,1,4.6-8.11c2.07-2.38,3.86-5,5.76-7.53a13,13,0,0,0,.83-1.6c-2,0-3.75-.09-5.46,0-2.6.15-5.19.56-7.79.62A41.89,41.89,0,0,1,80,47.21c-5.21-1.48-6.37-6-5.2-9.82a74,74,0,0,1,2.91-7A34.86,34.86,0,0,0,79,27c.58-1.92,0-3.21-1.94-3.64a46.41,46.41,0,0,0-6.23-.55Z"/><path class="cls-3" d="M313.66,142.82c-.64,2.66-1.35,5.31-1.9,8A33.4,33.4,0,0,1,307,162a53,53,0,0,1-3.4,4.45c-.65.82-1.43,1.54-2.05,2.37a9.06,9.06,0,0,1-7.16,3.68,6.52,6.52,0,0,1-5.47-2.92c-2.66-3.49-4.09-7.56-5.6-11.59-.6-1.59-1-3.26-1.61-4.85a8.1,8.1,0,0,0-1.09-1.64c-2.24.77-2.71,2.69-3.52,4.36-1.85,3.84-3.68,7.67-6.45,11a21.41,21.41,0,0,1-5.57,4.42,2.59,2.59,0,0,1-1,.26,11.71,11.71,0,0,1-4.65-.43,2.7,2.7,0,0,1-1.26-.84,28.61,28.61,0,0,1-4.5-7.71,20.47,20.47,0,0,0-3.18-5.56c-1.46-1.79-3.78-2.12-6-2.1-3.2,0-6,1.34-8.71,3A23,23,0,0,1,230.6,160a4.37,4.37,0,0,1-2.51-.42,1.12,1.12,0,0,1-.62-1.47,9.31,9.31,0,0,0,.23-1.44c3.67-1.88,7.35-4,11.25-5.65a18.69,18.69,0,0,1,7.32-1.49c4.44.07,8.69,1.05,10.92,5.65,1,2,1.88,4.05,3,6a43.85,43.85,0,0,0,3.22,4.51,1,1,0,0,0,1-.05,26,26,0,0,0,4-4.18c1.48-2.29,2.47-4.9,3.79-7.3a68.09,68.09,0,0,1,3.93-6.4,3.51,3.51,0,0,1,3.36-1.46,21.93,21.93,0,0,0,2.4-.19,6.35,6.35,0,0,1,5.84,4.44c.63,2,1.4,4,2.16,5.92.6,1.55,1.34,3,1.88,4.61a10.73,10.73,0,0,0,3,4.74,2.58,2.58,0,0,0,3.14,0c1.62-1.94,3.29-3.85,4.77-5.9a27,27,0,0,0,3.41-8c.31-1,.06-2.16.37-3.16.56-1.84.51-3.77,1-5.62a13.73,13.73,0,0,1,3.32-6.17,2.68,2.68,0,0,1,2.4-1c.63.05,1.33-.23,2,.15a12.48,12.48,0,0,1,2.83,1.83c2.68,2.89,4,6.58,5.46,10.14a24.21,24.21,0,0,0,4.56,7.63c2.13,0,2.85-1.82,3.81-3.18a31,31,0,0,0,2.08-4,22,22,0,0,0,2.11-7.79c.12-1.21,1.29-.55,1.76-1.14.09-.11.9.16,1.21.44,2,1.77,1.43,4,.84,6.09a28.78,28.78,0,0,1-5.25,10.39c-1.35,1.68-2.62,3.52-4.85,4.26a7.18,7.18,0,0,1-5.31-.08c-2.28-.93-3.33-2.75-4.27-4.7-1.25-2.58-2.29-5.25-3.48-7.86-.83-1.83-1.74-3.62-2.61-5.42Z"/><path class="cls-2" d="M207.46,40.28a46,46,0,0,0,3,3.76c2.29,2.31,4.79,4.42,7,6.77a88.1,88.1,0,0,1,6.27,7.32c1.35,1.77,1.05,4,.81,6.08a1.1,1.1,0,0,1-.49.76c-1.6.77-3.18,1.57-5.07,1.32-6-.77-11.9-1.59-17.87-2.23a49.66,49.66,0,0,0-6.8,0c-1,0-1.36.7-.74,1.56Q195.27,67.83,197,70c2.17,2.66,4.37,5.29,6.57,7.93.25.3.5.61.77.9a11.72,11.72,0,0,1,3.43,8.25c0,2.13-1.8,4.86-4.32,5.17a37.27,37.27,0,0,1-6.73.47,88.73,88.73,0,0,1-9.9-1.29,19.47,19.47,0,0,1-4.12-1.55,2.63,2.63,0,0,1-1.4-3.14c.22-.56.51-1.23,1.49-1,2,.54,4.1,1,6.18,1.39a44,44,0,0,0,5.87.58,54.42,54.42,0,0,0,5.79-.23c2.28-.18,2.92-1.44,1.75-3.3-1.84-2.91-4-5.6-6.14-8.34s-4.31-5.38-6.36-8.15a7,7,0,0,1-1.27-5.65c.37-1.86,2-2.5,3.46-3.1,1.91-.77,3.91-.49,5.91-.19s3.73.38,5.58.66c1.6.25,3.17.68,4.76,1s2.95.5,4.44.65c2,.19,4,.31,6.05.4a6.11,6.11,0,0,0,1.48-.32c-.65-2.14-2.12-3.46-3.47-4.83-3-3-6.06-5.9-9-9a57.5,57.5,0,0,1-4-5,5.2,5.2,0,0,1-.64-5.43,3.47,3.47,0,0,1,2.16-1.68,18.07,18.07,0,0,1,5-.46c4.33.23,8.64.65,13,1,.89.07,1.79.1,3,.16-.71-1.21-1.26-2.27-1.92-3.26-1.82-2.71-3.7-5.37-5.53-8.08a7.92,7.92,0,0,1-1.12-5.28c.17-1.92,1.57-3.06,3.07-4a18.58,18.58,0,0,1,2.35-1.1,2.1,2.1,0,0,1,2.77.82,7.08,7.08,0,0,1,.62,2.74c0,.44-.5,1-.93,1.33A23.87,23.87,0,0,1,223,20.6a1.08,1.08,0,0,0-.42,1.7c1.22,1.94,2.44,3.87,3.73,5.77,1.07,1.58,2.49,3,3.28,4.7a15,15,0,0,1,1.11,5c.17,2-1.94,2.93-3.38,2.87-3.82-.16-7.63-.43-11.44-.64-2.19-.12-4.37-.24-6.56-.32a10.54,10.54,0,0,0-1.64.19Z"/><path class="cls-3" d="M299.56,37c-1.87.69-3.57,1.21-5.17,1.94-4.18,1.89-8.29,3.92-12.47,5.81a28.45,28.45,0,0,1-3.86,1.23,4.44,4.44,0,0,1-4.61-1.25,3.14,3.14,0,0,1-.67-2.41,20.57,20.57,0,0,1,1.48-4.89c1.83-4,3.84-7.88,5.75-11.82a12.85,12.85,0,0,0,.54-1.86c-1.11.2-2.18.32-3.22.59-2.93.74-5.84,1.56-8.77,2.3a6.9,6.9,0,0,1-4.76-.72c-1.6-.78-2-2.39-2.33-4A8.76,8.76,0,0,1,261.4,19c.09-.58.6-1.43,1.06-1.54a7.76,7.76,0,0,1,3.09,0c.86.16.79,1,.84,1.77.25,4,.68,3.54,3.62,2.89s5.8-1.77,8.75-2.35a10.06,10.06,0,0,1,4.68.34c2,.61,2.4,2.22,1.61,4.16-1.37,3.39-3,6.68-4.51,10-.87,1.92-1.76,3.84-2.6,5.77a12.94,12.94,0,0,0-.46,1.94,42,42,0,0,0,4.39-1.5c3.38-1.59,6.67-3.38,10.06-4.95a57.06,57.06,0,0,1,6.13-2.32c2.06-.68,3.89.27,5.67,1.14a1.41,1.41,0,0,1,.61,1.06,8.91,8.91,0,0,1-.75,4.84c-2.4,4.27-4.79,8.54-7,12.9a71.87,71.87,0,0,0-3.45,8.12c-.45,1.25,0,1.66,1.36,1.27,2.12-.63,4.17-1.47,6.26-2.2,3.67-1.29,7.25-2.95,11-3.74,3.55-.74,6.46-.26,7.9,3.28a5.05,5.05,0,0,1,.21,2.91,39.25,39.25,0,0,1-4.67,11.65,55.16,55.16,0,0,1-4.57,5.94,2.21,2.21,0,0,1-3.09.21c-.44-.4-.85-.9-.32-1.65,1.16-1.64,2.23-3.33,3.33-5a29.68,29.68,0,0,0,4.56-11c.27-1.52-.49-2.24-1.94-2a39.81,39.81,0,0,0-6.59,1.62c-3.21,1.06-6.33,2.39-9.52,3.48a12.37,12.37,0,0,1-4.28.89c-4.14-.15-5.24-2.06-4.64-6.08A16.24,16.24,0,0,1,290,56.51c.73-1.52,1.49-3,2.33-4.49s1.92-2.83,2.73-4.33c1.61-3,3.13-6,4.63-9.1C299.82,38.26,299.62,37.77,299.56,37Z"/><path class="cls-2" d="M240.77,115.81c-1.39-2.16-2.56-4.25-4-6.12a5.41,5.41,0,0,1-1.24-3.34c0-.46.81-1,1.38-1.36a14,14,0,0,1,2.4-.8c1.94.64,3,2.55,4,4.41.86,1.49,1.77,2.95,2.7,4.48,1.13-.56,2.17-1.13,3.25-1.6,2.17-.94,4.34-1.88,6.54-2.72,1-.39,1.62.33,2.09,1.15.35.63.33,1-.18,1.71-1.93,2.78-5.22,3.28-7.76,5-.46.31-1,.55-1.66.93.29.69.55,1.4.87,2.07,1.64,3.38,3.33,6.74,5,10.12a2,2,0,0,1-.79,2.65,3.32,3.32,0,0,0-.57.62l-1.5.1c-.09,0-.25.11-.26.09-.71-1-2.36-.94-2.59-2.64-.15-1.09-1.16-2-1.66-3.12-.76-1.6-1.38-3.27-2.14-4.87a21,21,0,0,0-1.42-2.23c-2.1.94-4.15,1.82-6.17,2.76-1.28.59-2.52,1.28-3.81,1.87a1.23,1.23,0,0,1-.86-.15c-.58-.27-1.12-.59-1.76-.94l.84-1.05-1.28.27a2.06,2.06,0,0,1,1.14-2.54C234.46,119,237.57,117.42,240.77,115.81Z"/><path class="cls-2" d="M284.48,265c2.94-1.21,4.52,1.06,6.33,2.69.87-2.82,1.65-5.56,2.59-8.25a1.53,1.53,0,0,1,1.7-1.1,6.62,6.62,0,0,0,2.44-.79l.19-.45.92,1.65c.06.1.07.29.14.31,1.74.66.62,1.67.32,2.57-1,3.05-2.06,6.1-3,9.17-.1.32.33.93.67,1.22,2.1,1.84,4.28,3.59,6.37,5.44a13,13,0,0,1,2.17,2.49,1.52,1.52,0,0,1-.67,2.44,8.5,8.5,0,0,1-2.23.74,2.79,2.79,0,0,1-1.41-.35,11.85,11.85,0,0,1-1.53-.86c-.23-.14-.56-.32-.59-.52-.23-1.59-1.69-1.95-2.68-2.77l-1.69-1.41c-.39,2.25-.74,4.4-1.15,6.54a2.24,2.24,0,0,1-.64,1.34c-.75.53-1.7.79-2.46,1.31a2.12,2.12,0,0,1-2.42,0c-.32-.67-.59-1.17-.79-1.69a1.82,1.82,0,0,1-.13-1c.67-3,1.33-6,2.08-9a1.31,1.31,0,0,0-.56-1.52c-1.14-1-2.27-2-3.37-3-.71-.67-1.38-1.39-2-2.13-1-1.14-.61-2.35.88-2.71A2,2,0,0,0,284.48,265Z"/><path class="cls-2" d="M15.13,25.93c-.39,2.29-.73,4.42-1.14,6.54a2.23,2.23,0,0,1-.64,1.34,10.52,10.52,0,0,1-2.48,1.27c-1.33.48-1.35.43-2.37,0-.36-.69-.67-1.21-.9-1.76a1.55,1.55,0,0,1-.06-.87c.67-3,1.33-6,2.09-9a1.31,1.31,0,0,0-.55-1.52c-1.14-1-2.27-2-3.37-3-.71-.67-1.38-1.39-2-2.13-1-1.14-.61-2.35.88-2.71A.82.82,0,0,0,5,13.65c3-1.17,4.58,1.09,6.41,2.76.87-2.82,1.65-5.56,2.59-8.25a1.52,1.52,0,0,1,1.7-1.1,6.66,6.66,0,0,0,2.45-.79l.18-.45.92,1.64c.06.1.07.29.14.31,1.74.66.62,1.67.32,2.57-1,3.05-2.06,6.1-3,9.17-.1.32.33.93.67,1.22,2.1,1.84,4.29,3.58,6.37,5.44A13.81,13.81,0,0,1,26,28.77a1.51,1.51,0,0,1-.73,2.34,8.57,8.57,0,0,1-2.23.74,2.78,2.78,0,0,1-1.41-.35,11.82,11.82,0,0,1-1.53-.86c-.23-.14-.56-.32-.59-.52-.23-1.59-1.69-2-2.68-2.77Z"/><path class="cls-3" d="M40.23,44.63c2.94-1.21,4.51,1.07,6.25,2.62.84-2.42,1.65-4.78,2.5-7.12a4.76,4.76,0,0,1,1-1.88c.39-.36,1.16-.26,1.74-.46a20.13,20.13,0,0,0,1.89-.89l.82,1.48c.06.1.07.29.14.31,1.74.66.62,1.67.32,2.57-1,3.05-2.06,6.1-3,9.17-.1.32.33.93.67,1.22,2.1,1.84,4.29,3.58,6.37,5.44a13.94,13.94,0,0,1,2.24,2.59A1.45,1.45,0,0,1,60.5,62,9.55,9.55,0,0,1,58,62.8a2.45,2.45,0,0,1-1.29-.38,14.18,14.18,0,0,1-1.53-.86c-.23-.14-.56-.32-.59-.52-.23-1.59-1.69-1.95-2.68-2.77l-1.69-1.41c-.39,2.26-.74,4.4-1.15,6.54a2.23,2.23,0,0,1-.64,1.33c-.75.53-1.7.79-2.46,1.31a2.08,2.08,0,0,1-2.36.06,19.93,19.93,0,0,1-.93-1.82,1.81,1.81,0,0,1,0-1c.67-3,1.32-6,2.07-8.93a1.31,1.31,0,0,0-.56-1.52c-1.14-1-2.27-2-3.37-3-.71-.67-1.38-1.39-2-2.12-1-1.14-.61-2.35.88-2.7A2,2,0,0,0,40.23,44.63Z"/><path class="cls-3" d="M25.12,103.73c2.2-1,4.25-1.93,6.32-2.84.94-.42,2-1.18,2.85-1.06,1.08.14,2.57-.12,3.22,1.33.09.2.41.3.63.46a7.46,7.46,0,0,1-4,3.29c-2.8,1.26-5.56,2.64-8.56,4.07.45,1.77.95,3.73,1.45,5.68.12.46.26.92.39,1.38.25.87,1,1.95-.87,1.85-.74,1.37-1.88.58-2.68.29a3.45,3.45,0,0,1-2.29-2.7c-.23-1.21-.57-2.4-.87-3.6-.21-.83-.49-1.31-1.58-1-2.48.75-5,1.33-7.53,2a1.81,1.81,0,0,1-2-1.62c-.49-.3-1.16-.48-1.3-.86-.25-.67.74-2,1.44-2.21,2.69-.68,5.38-1.36,8.08-2,1.13-.27,1.35-.67,1-1.73-.18-.51-.19-1.08-.32-1.61-.56-2.35-1.17-4.69-1.7-7.05-.21-.94-.54-2,.35-2.76a3.35,3.35,0,0,1,1.8-1,6,6,0,0,1,2.29.66c2,.81,2.36,2.64,2.69,4.47Z"/><path class="cls-3" d="M228.64,235.26c1.36-1,2.65-1.89,3.9-2.83,1.51-1.13,3-2.33,4.51-3.44,1.2-.87,3.83-.55,4.65.63a1.64,1.64,0,0,1,0,1.57c-2.13,1.94-4.31,3.84-6.57,5.62-1.3,1-2.8,1.81-4.15,2.77a1.17,1.17,0,0,0-.3,1c.25.84.72,1.61,1,2.45.59,2.1,1.14,4.21,1.59,6.33a1.43,1.43,0,0,1-.62,1.22,6.48,6.48,0,0,1-2.12.42c-.28,0-.57-.2-.86-.31a2.24,2.24,0,0,1-1.65-1.65c-.55-2.26-1.27-4.47-2-6.9l-5.23,2.31c-1.56.69-3.11,1.46-5.06,1.1l.43-1.18c-.5-.21-1.11-.27-1.37-.6-.64-.85-.13-1.72,1.1-2.25,2.14-.91,4.24-1.91,6.38-2.82,1.08-.46,1.47-1,.76-2.13-1.25-2-2.46-3.94-3.57-6a13.34,13.34,0,0,1-1.5-3.73,2.76,2.76,0,0,1,.83-2.28,3.17,3.17,0,0,1,2.85-.26c1.54.45,1.44,1.89,2.08,2.85,1.32,2,2.53,4,3.78,6C227.81,233.83,228.14,234.42,228.64,235.26Z"/><path class="cls-3" d="M314.06,204.88l7-5.12a4.51,4.51,0,0,1,5.38-.14,1.29,1.29,0,0,1,.26,2c-1.49,1.22-3,2.36-4.54,3.57-.49.4-.84,1-1.34,1.35-1.35,1-2.72,2-4.12,2.95a1.21,1.21,0,0,0-.57,1.67c1.14,3,2.22,6,3.36,9,.48,1.24-.7,3-2,2.7s-2.42-.44-2.92-2c-.8-2.43-1.81-4.79-2.73-7.17a5.16,5.16,0,0,0-.26-.46c-.93.68-1.83,1.33-2.72,2-.63.48-1.25,1-1.84,1.53a4.35,4.35,0,0,1-3.7.92,3.34,3.34,0,0,1-2-1.64c-.54-1,.28-1.63,1.05-2.19,1-.74,2-1.53,3-2.31s1.86-1.63,2.89-2.29a1.75,1.75,0,0,0,.73-2.29,30.88,30.88,0,0,0-3.37-6.5,1.86,1.86,0,0,1-.1-2.27c.36-.79,1.29-1,2.34-.76,2.57.55,3.77,2.43,4.78,4.54C313.19,202.92,313.62,203.91,314.06,204.88Z"/><path class="cls-2" d="M156.64,191c-.35,3.26-.7,6.26-1,9.28a1.24,1.24,0,0,1-1.32,1.23c-.75.07-1.51.1-2.26.14-1.48.06-2.18-.52-2.22-2,0-1.26.07-2.53.13-3.8.07-1.46.19-2.92.22-4.39,0-.49,1-1.07,0-1.47a6.73,6.73,0,0,0-1.74-.28,37.41,37.41,0,0,1-4.14-.5,8.43,8.43,0,0,1-2.15-1.26l.35-1.1-.68-.44c0-.14,0-.25.09-.29.55-.47,1-1.13,1.67-1.35a15.05,15.05,0,0,1,3.58-.7,12.85,12.85,0,0,1,2.48.3c1.8.22,2,.13,2.22-1.58a41.11,41.11,0,0,1,2.33-8.28,1.23,1.23,0,0,0,.11-.34c0-1.72,1.62-2.06,2.64-2.84.41-.31,1.27-.05,2-.05.33.48.16,1.65,1.6,1l-3.23,12.55a52.4,52.4,0,0,0,5,2.31,1.88,1.88,0,0,1,1.33,2,2,2,0,0,1-1.78,2.11C160.18,191.55,158.47,192.05,156.64,191Z"/><path class="cls-2" d="M72,117c.17,2.61.49,5.08.43,7.54,0,1.52.56,3.37-1.05,4.5a3.47,3.47,0,0,1-2,.58c-.61,0-1.21.17-1.93-.59-.9-1-.76-1.83-.85-2.81q-.36-3.73-.74-7.45c-.07-.67-.37-1.09-1.14-1.1-2.26,0-4.53-.22-6.78-.06A4.9,4.9,0,0,1,54,115c-.14-.41.4-1.27.86-1.6,1.36-1,3-.75,4.59-.81l5.59-.21c-.16-1.86-.26-3.37-.43-4.86a4.21,4.21,0,0,1,2-4.41c.46-.29,1.06-.88,1.63,0,.07.11.52,0,.8,0,1.19.89,1.15,2.26,1.24,3.59.11,1.54.28,3.08.41,4.62.06.69.39,1,1.09.93q2.26-.08,4.53-.06a2.4,2.4,0,0,1,2.07,2.22,1.85,1.85,0,0,1-1.68,1.85C75.18,116.56,73.56,116.75,72,117Z"/><path class="cls-3" d="M178.11,24.59c-.79,1.66-1.44,2.91-2,4.2a6.9,6.9,0,0,0-1,3.07c.06,1.53-2.58,2.54-3.81,2.06-1.86-.73-2.42-2.14-1.51-3.79,1.37-2.49,2.52-5.1,3.69-7.69a1.55,1.55,0,0,0-.19-1.31,3.76,3.76,0,0,0-2.45-1.91c-.23,0-.42-.43-.6-.68a9.93,9.93,0,0,0-.84-1.25,10.94,10.94,0,0,1-2.54-4.59c-.19-.63-.17-1.56,1-1.5.21,0,.43-.35.55-.45l1.62.38,5.69,6.16c.3-.15.61-.2.69-.36q1.21-2.57,2.35-5.17c.19-.43.22-.93.41-1.36.49-1.11,1.54-.87,2.35-.74,2.48.4,3.2,2.62,1.79,4.74a23.9,23.9,0,0,0-1.51,3.42c-.3.65-.74,1.24-1,1.91A1.58,1.58,0,0,0,181,21c2,2.47,4,4.86,5.94,7.33.35.45.71,1.45.5,1.68a3.66,3.66,0,0,1-2.06,1.17c-2,.25-3.14-1.13-4.22-2.49S179.26,26.17,178.11,24.59Z"/><path d="M273.93,243.63c2.46-.16,3.66,1.75,4,3.49.54,2.55-.3,3.93-2.55,4.76-.74.27-1.45.65-2.21.85-1.6.43-2.49-.81-3.37-1.73-1.78-1.84-1.58-3.58.11-5.53A4.48,4.48,0,0,1,273.93,243.63Z"/><path d="M178.16,118.31c2.24,0,3.4.63,4.14,2.05.88,1.71,1.11,3.41-.1,5.05a2.42,2.42,0,0,1-.93.7,15.92,15.92,0,0,1-3.15,1.28c-1.92.41-2.94-1.08-3.88-2.35-1.27-1.72-1-3.21.52-4.76C176.55,118.5,177,118.28,178.16,118.31Z"/><path d="M327.12,255.73c-2.5,0-4.61-2-4.56-4.17s2.87-5,5.14-4.84a4.63,4.63,0,0,1,4.48,4.54C332.2,253.16,329.17,255.76,327.12,255.73Z"/><path d="M315.37,24.31c-3.1-.15-4.37-2-4.5-4.18s2.86-5,5.11-4.83a4.65,4.65,0,0,1,4.47,4.44C320.53,21.66,317.52,24.33,315.37,24.31Z"/><path d="M291.95,109.11c.09-2,1.44-3.45,4-4.32a4.14,4.14,0,0,1,5.42,2.84,3.21,3.21,0,0,1-1.06,3.53c-.75.7-1.18,1.64-2.34,2A4.6,4.6,0,0,1,291.95,109.11Z"/><path d="M221.05,266.8a2.47,2.47,0,0,1-.26.86c-1,1.47-2,3.08-3.85,3.59a5.33,5.33,0,0,1-4.54-1.62,4.1,4.1,0,0,1-.35-4.66,5.16,5.16,0,0,1,4.42-2.72C218.7,262.08,220.89,263.89,221.05,266.8Z"/><path class="cls-3" d="M196.64,139.72c.11-2,1.63-3.4,3.9-4.34a3.6,3.6,0,0,1,3.43.29,4.14,4.14,0,0,1,2.25,3.32,2.39,2.39,0,0,1-.14,1.27c-.93,1.65-2,3.18-3.95,3.81C199.91,144.81,196.52,142.09,196.64,139.72Z"/><path class="cls-2" d="M229.21,178.65a3.83,3.83,0,0,1,4-4c2.9-.06,4.19,2.33,4.38,4.24a4,4,0,0,1-3.53,3.84C231.09,182.66,228.83,181,229.21,178.65Z"/><path d="M95.51,110.67c-2.8,0-4.68-3.15-3.6-5.32a4.64,4.64,0,0,1,1.29-1.9,5.06,5.06,0,0,1,6.92,2.45A3.57,3.57,0,0,1,97,110.55C96.52,110.58,96,110.63,95.51,110.67Z"/><path class="cls-3" d="M174,263c-3.6-.62-4.58-1.73-4.37-4.79.12-1.8,2.09-3.31,4.21-3.2a4.33,4.33,0,0,1,4.25,4.37A3.89,3.89,0,0,1,174,263Z"/><path d="M174.26,226.26c.25-1.73,1.38-3.61,2.72-3.81a8.18,8.18,0,0,1,3.2.26,4.16,4.16,0,0,1,2.76,2.74c.84,2.15-.28,4.11-2.78,4.57-1.72.32-3.54.49-4.68-1.31A23.16,23.16,0,0,1,174.26,226.26Z"/><path d="M210.18,189.44c2.18.17,4.23,2.33,4.08,4.3a4.58,4.58,0,0,1-4.21,3.67c-2.87-.17-4.68-2.13-4.47-4.85C205.72,190.74,207.89,189.27,210.18,189.44Z"/><path d="M140.41,251.76c2.17.17,4.23,2.33,4.08,4.3a4.59,4.59,0,0,1-4.21,3.67c-2.87-.16-4.68-2.12-4.47-4.84C136,253.06,138.13,251.59,140.41,251.76Z"/><path d="M14.25,182.5c.1,2.08-1.84,3.87-4.24,3.93-1.6,0-3.84-1.9-3.92-3.39a4.43,4.43,0,0,1,4.1-4.28C12.09,178.77,14.3,180.51,14.25,182.5Z"/><path d="M244.28,62.23c.09,2.07-1.86,3.87-4.25,3.92-1.6,0-3.84-1.91-3.91-3.4a4.45,4.45,0,0,1,4.11-4.27C242.13,58.5,244.33,60.24,244.28,62.23Z"/><path class="cls-2" d="M128.55,37.49c-1.17-.3-2.56-.31-3.46-1a4.56,4.56,0,0,1-1.68-3,3.65,3.65,0,0,1,3.75-3.64,4.44,4.44,0,0,1,4.44,4.31,3.48,3.48,0,0,1-3,3Z"/><path class="cls-2" d="M278.47,73.37A4,4,0,0,1,282.71,77c.12,1.69-1.8,3.6-3.73,3.7a4.11,4.11,0,0,1-4.42-3.44A3.8,3.8,0,0,1,278.47,73.37Z"/><path class="cls-2" d="M78.4,252.68a4.05,4.05,0,0,1,4.06,3.72c.07,1.64-1.83,3.51-3.69,3.62a4,4,0,0,1-4.45-3.52C74.22,254.33,75.84,252.81,78.4,252.68Z"/><path class="cls-2" d="M16.27,251.19a4,4,0,0,1,4.21,3.65c.12,1.64-1.77,3.53-3.64,3.66A4.12,4.12,0,0,1,12.33,255,3.81,3.81,0,0,1,16.27,251.19Z"/><path d="M52.53,5.21a4,4,0,0,1,4.2,3.67c.09,1.64-1.8,3.52-3.66,3.65A4.11,4.11,0,0,1,48.57,9,3.82,3.82,0,0,1,52.53,5.21Z"/><path class="cls-3" d="M55.12,163.73a4,4,0,0,1,4.23,3.63c.11,1.69-1.81,3.59-3.74,3.69a4.11,4.11,0,0,1-4.42-3.45A3.81,3.81,0,0,1,55.12,163.73Z"/><path d="M245.26,5.75a4,4,0,0,1,4.25,3.61c.12,1.69-1.79,3.6-3.72,3.7a4.11,4.11,0,0,1-4.43-3.44A3.8,3.8,0,0,1,245.26,5.75Z"/><path class="cls-3" d="M49.73,214.7c1.84,0,4.08,2,4.06,3.7,0,2.12-1.57,3.39-4.49,3.54a3.94,3.94,0,0,1-3.56-3.46A3.7,3.7,0,0,1,49.73,214.7Z"/><path class="cls-3" d="M247.77,90c0-1.93,1.69-3.41,4-3.43,1.85,0,4.08,1.95,4.06,3.7,0,2.11-1.55,3.4-4.48,3.55C249.54,93.92,247.78,92,247.77,90Z"/><path d="M15.77,219.44c0-2,1.73-3.48,4-3.49,1.81,0,4.06,2.07,4,3.77-.08,2.19-1.75,3.37-4.55,3.47C17.54,223.27,15.77,221.28,15.77,219.44Z"/><path d="M140,7.65c1.84,0,4.09,1.94,4.08,3.68,0,2.1-1.51,3.4-4.47,3.56A4,4,0,0,1,136,11.46,3.69,3.69,0,0,1,140,7.65Z"/><path d="M40.43,264.44c0-1.86,1.79-3.37,4-3.38,1.8,0,4.06,2.07,4,3.76-.07,2.18-1.72,3.38-4.54,3.49C42.18,268.38,40.44,266.39,40.43,264.44Z"/><path d="M83.95,225.22a4.17,4.17,0,0,1-4.08-3.44A3.9,3.9,0,0,1,83.35,218c2.14-.1,4.52,1.69,4.58,3.46C88,223.58,86.37,225.11,83.95,225.22Z"/><path d="M75.71,195a4.17,4.17,0,0,1-4-3.43,3.9,3.9,0,0,1,3.46-3.76c2.12-.12,4.52,1.68,4.6,3.44C79.89,193.34,78.21,194.88,75.71,195Z"/><path d="M249.87,211.22a3,3,0,0,1-3.29,3.18,5.83,5.83,0,0,0-1,.12,2.41,2.41,0,0,1-.81.06c-1.07-.27-2.64-2.37-2.7-3.56a3.81,3.81,0,0,1,2.33-3.34C246.71,206.73,249.82,208.73,249.87,211.22Z"/><path d="M143.6,139.91a3.34,3.34,0,0,1-3.51,3.25c-.57,0-1.19.29-1.74.19-1.08-.2-3.1-2.48-2.75-4.2a4,4,0,0,1,7.12-1.08A19.35,19.35,0,0,1,143.6,139.91Z"/><path d="M36.22,138.92a3.09,3.09,0,0,1-3.36,3.37c-.65,0-1.43.34-1.94.09A4.22,4.22,0,0,1,28.41,139a3.34,3.34,0,0,1,2-3.24,5.52,5.52,0,0,1,4.22.58C35.46,137.08,36.42,137.75,36.22,138.92Z"/><path d="M288.19,200.17c.41,2.24-2.16,3.59-4.08,3.54-1.77,0-3.48-2.14-3.53-4.41,0-1.35,1.91-2.91,3.64-2.93S288.18,198.51,288.19,200.17Z"/><path d="M18.06,70.08a4.27,4.27,0,0,1-3.6-4.45c0-1.29,1.87-2.79,3.58-2.87,1.26-.06,4,2.09,4.09,3.14C22.41,69,20.24,70,18.06,70.08Z"/><path d="M155.09,54.22c0,2.34-1.45,3.78-4,3.63-1.76-.11-3.6-1.63-3.57-4.44,0-1.28,1.93-2.79,3.61-2.84S155.09,52.7,155.09,54.22Z"/><path d="M325.24,179.56c.38,2.23-2.18,3.57-4.12,3.51-1.73-.06-3.43-2.24-3.53-4.44,0-1.07,1.85-2.92,3.7-2.9S325.23,177.91,325.24,179.56Z"/><path class="cls-3" d="M180.44,162.89a4.14,4.14,0,0,1,3.82,3.49,3.89,3.89,0,0,1-3.54,3.56c-1.93,0-3.9-1.5-3.94-3.06A3.93,3.93,0,0,1,180.44,162.89Z"/><path class="cls-2" d="M324,97.36a4.65,4.65,0,0,1,5,4.22c.14,2-2.09,4.21-4.35,4.33a4.81,4.81,0,0,1-5.18-4A4.44,4.44,0,0,1,324,97.36Z"/></pattern></defs><title>patternbg</title><rect class="cls-4" width="6446.58" height="5954.38"/></svg>